<?xml version="1.0" encoding="utf-8"?>
<!-- Generator: Adobe Illustrator 15.1.0, SVG Export Plug-In . SVG Version: 6.00 Build 0)  -->
<!DOCTYPE svg PUBLIC "-//W3C//DTD SVG 1.1//EN" "http://www.w3.org/Graphics/SVG/1.1/DTD/svg11.dtd">
<svg version="1.1" id="Layer_1" xmlns="http://www.w3.org/2000/svg" xmlns:xlink="http://www.w3.org/1999/xlink" x="0px" y="0px"
	 viewBox="0 0 20 20" style="enable-background:new 0 0 20 20;"  xml:space="preserve">
<path style="fill:#FFFFFF;" d="M323.9,378.1c-3.4-3.4-6-2.9-6-2.9l-14.3,14.3l-16.1,16.1l-2.4,11.3l11.3-2.4l16.1-16l14.3-14.3
	C326.8,384.1,327.3,381.5,323.9,378.1z M295.8,413.1l-3.8,0.8c-0.4-0.7-0.8-1.4-1.6-2.2c-0.8-0.8-1.5-1.3-2.2-1.6l0.8-3.8l1.1-1.1
	c0,0,2.1,0,4.5,2.4c2.4,2.4,2.4,4.5,2.4,4.5L295.8,413.1z"/>
</svg>
